<svg width="18" height="18" viewBox="0 0 18 18" fill="none" xmlns="http://www.w3.org/2000/svg">
<path d="M17.956 1.3362L11.89 17.1505C11.8458 17.2651 11.768 17.3637 11.6668 17.4333C11.5656 17.5029 11.4458 17.5404 11.323 17.5407H11.2803C11.1508 17.5311 11.0277 17.4804 10.929 17.396C10.8303 17.3115 10.7612 17.1978 10.7316 17.0713L8.98803 9.51162L1.42836 7.78631C1.30299 7.75535 1.19068 7.68538 1.10763 7.58649C1.02458 7.4876 0.975082 7.36488 0.966266 7.23604C0.957451 7.10721 0.989776 6.9789 1.05858 6.86961C1.12739 6.76033 1.22912 6.67571 1.34911 6.62797L17.1634 0.543658C17.2742 0.499312 17.3956 0.488456 17.5125 0.512436C17.6294 0.536417 17.7367 0.594179 17.8211 0.678563C17.9055 0.762946 17.9632 0.87024 17.9872 0.987142C18.0112 1.10404 18.0003 1.22541 17.956 1.3362Z" fill="#32383C"/>
</svg>                                                                                                                              
