<svg width="62" height="69" viewBox="0 0 62 69" fill="none" xmlns="http://www.w3.org/2000/svg">
<path d="M21.283 58.6139C33.0376 63.15 46.6863 56.7049 51.7681 44.2183C56.85 31.7318 51.4406 17.9322 39.686 13.3961C27.9314 8.85998 14.2827 15.3051 9.20087 27.7917C4.11903 40.2782 9.52839 54.0778 21.283 58.6139Z" fill="#AA51B9"/>
<path d="M51.7641 44.2184C46.6821 56.705 33.0336 63.1502 21.279 58.614C9.52436 54.078 14.992 44.4377 20.0738 31.9511C36.724 25.8712 27.9275 8.85996 39.682 13.3961C51.4366 17.9322 56.8458 31.7318 51.7641 44.2184Z" fill="#C565D6"/>
<path d="M4.78516 25.4263C6.90435 18.8183 15.614 6.41007 33.4991 9.6411C51.3844 12.8721 21.8086 21.5109 4.78516 25.4263Z" fill="#1AB15C"/>
</svg>
